<svg version="1.1" id="svg_close-eye" xmlns="http://www.w3.org/2000/svg" xmlns:xlink="http://www.w3.org/1999/xlink" x="0px" y="0px" viewBox="0 0 24 24" style="enable-background:new 0 0 24 24;" xml:space="preserve">

   <path d="M23.9,11.3c-2.4-4.8-6.3-8-11.8-8c-1.2,0-2.2,0.1-3.2,0.4l1.8,1.8c0.5-0.1,0.9-0.1,1.4-0.1c4.5,0,7.5,2.5,9.7,6.5
		c-0.6,1.1-1.2,2-1.9,2.8l1.5,1.5c1-1.1,1.8-2.3,2.5-3.7C24.1,12.2,24.1,11.8,23.9,11.3z"/>
	<path d="M12,18.5c-4.5,0-7.5-2.5-9.7-6.5c0.6-1.1,1.2-2,2-2.8L2.7,7.6c-1,1.1-1.8,2.3-2.5,3.7c-0.2,0.4-0.2,0.9,0,1.3
		c2.4,4.8,6.3,8,11.8,8c1.2,0,2.3-0.2,3.3-0.4l-1.8-1.8C13,18.5,12.5,18.5,12,18.5z"/>
	<rect x="10.5" y="0" transform="matrix(0.7071 -0.7071 0.7071 0.7071 -4.9529 12.0179)" width="3" height="24"/>

</svg>