<svg version="1.1" id="svg_open-eye" xmlns="http://www.w3.org/2000/svg" xmlns:xlink="http://www.w3.org/1999/xlink" x="0px" y="0px" viewBox="0 0 24 24" style="enable-background:new 0 0 24 24;" xml:space="preserve">

   <path d="M12,7c-0.5,0-1,0.1-1.4,0.2c0.2,0.4,0.3,0.8,0.3,1.2c0,1.4-1.1,2.5-2.5,2.5c-0.4,0-0.8-0.1-1.2-0.3
   c-0.8,2.7,0.8,5.5,3.4,6.2s5.5-0.8,6.2-3.4c0.8-2.7-0.8-5.5-3.4-6.2C13,7,12.5,7,12,7z M23.8,11.3c-2.4-4.8-6.3-8-11.8-8
   s-9.4,3.2-11.8,8c-0.2,0.4-0.2,0.9,0,1.3c2.4,4.8,6.3,8,11.8,8s9.4-3.2,11.8-8C24.1,12.2,24.1,11.8,23.8,11.3z M12,18.5
   c-4.5,0-7.5-2.5-9.7-6.5C4.5,8,7.5,5.5,12,5.5S19.5,8,21.7,12C19.5,16,16.5,18.5,12,18.5z"/>

</svg>