<?xml version="1.0" encoding="utf-8"?>
<svg version="1.1" id="svg_reset" xmlns="http://www.w3.org/2000/svg" xmlns:xlink="http://www.w3.org/1999/xlink" x="0px" y="0px" viewBox="0 0 60 60" style="enable-background:new 0 0 60 60;" xml:space="preserve">

	<path d="M40,6H11.1C8.3,6,6,8.3,6,11.1v37.8c0,2.8,2.3,5.1,5.1,5.1h37.8c2.8,0,5.1-2.3,5.1-5.1V20c0-1.1-0.4-2.1-1.2-2.9
	l-9.9-9.9C42.1,6.4,41.1,6,40,6z M31.4,47.9c-4.9,0.9-9.2-3.3-8.2-8.2c0.5-2.8,2.7-5,5.5-5.5c4.9-0.9,9.2,3.3,8.2,8.2
	C36.3,45.1,34.1,47.3,31.4,47.9z M38.9,27H14.1c-0.6,0-1.1-0.5-1.1-1.1V14.1c0-0.6,0.5-1.1,1.1-1.1h24.9c0.6,0,1.1,0.5,1.1,1.1v11.9
	C40,26.5,39.5,27,38.9,27z"/>

</svg>