<?xml version="1.0" encoding="utf-8"?>
<!-- Generator: Adobe Illustrator 25.3.1, SVG Export Plug-In . SVG Version: 6.00 Build 0)  -->
<svg version="1.1" xmlns="http://www.w3.org/2000/svg" xmlns:xlink="http://www.w3.org/1999/xlink" x="0px" y="0px"
	 viewBox="0 0 360 72" style="enable-background:new 0 0 360 72;" xml:space="preserve">
<style type="text/css">
	.st0{fill:#333333;}
	.st1{fill:#AAAAAA;}
</style>
<g id="wordmark">
	<g id="text">
		<path class="st0" d="M110.1,61c-3.9,0-7.4-0.4-10.4-1.1s-6-2.1-9-4.2V43.3h8.9l1,6.4c0.7,0.8,1.9,1.4,3.7,2
			c1.8,0.5,3.7,0.8,5.8,0.8c1.5,0,2.7-0.2,3.7-0.5c1-0.4,1.7-0.9,2.2-1.6c0.5-0.7,0.8-1.5,0.8-2.5c0-0.9-0.2-1.8-0.7-2.5
			c-0.5-0.7-1.2-1.4-2.3-2.1c-1.1-0.7-2.5-1.4-4.3-2.1c-4.1-1.3-7.5-2.6-10.1-4s-4.6-3-5.9-4.8s-1.9-4.2-1.9-6.9
			c0-2.6,0.8-5,2.3-6.9c1.5-2,3.6-3.5,6.2-4.7s5.7-1.7,9.1-1.8c3.9-0.1,7.3,0.3,10.3,1.2c3,0.9,5.6,2.2,7.9,3.9v11.5h-8.5l-1.3-6.4
			c-0.7-0.4-1.8-0.7-3.2-1c-1.4-0.3-2.8-0.5-4.4-0.5c-1.3,0-2.5,0.2-3.6,0.5s-1.9,0.9-2.5,1.6c-0.6,0.7-0.9,1.6-0.9,2.6
			c0,0.9,0.3,1.6,0.8,2.3c0.5,0.7,1.4,1.3,2.7,2c1.3,0.7,3,1.4,5.3,2.3c5.4,1.6,9.5,3.6,12.4,6c2.8,2.4,4.2,5.7,4.2,9.8
			c0,2.8-0.8,5.2-2.3,7.2c-1.5,2-3.7,3.5-6.4,4.5C117,60.5,113.8,61,110.1,61z"/>
		<path class="st0" d="M146.2,61c-3.7,0-6.6-1.2-8.7-3.5c-2.1-2.3-3.2-5.9-3.2-10.8V32.6l-3.8-1.1v-6.8h3.8h11.5v22
			c0,1.8,0.4,3.1,1.1,4c0.7,0.9,1.8,1.4,3.3,1.4c0.9,0,1.7-0.2,2.5-0.5c0.8-0.3,1.6-0.8,2.2-1.4V32.6l-3.9-1.1v-6.8h3.9h11.5v27.7
			l4.4,1.1v6.7h-14.4l-0.8-4c-1.1,1.5-2.5,2.7-4.2,3.5C150.1,60.6,148.2,61,146.2,61z"/>
		<path class="st0" d="M187.4,61c-2.8,0-5.2-0.7-7.2-2.2c-2-1.5-3.5-3.5-4.6-6.2s-1.6-5.8-1.6-9.3v-0.7c0-3.7,0.5-6.9,1.6-9.7
			c1.1-2.8,2.6-4.9,4.6-6.5c2-1.5,4.3-2.3,7-2.3c1.9,0,3.5,0.4,4.9,1.2c1.4,0.8,2.6,1.9,3.6,3.3V16.9l-5-1.1V9.1h5h11.5v43.4
			l4.1,1.1v6.7h-14.1l-0.9-4.4c-1.1,1.7-2.3,2.9-3.8,3.8S189.5,61,187.4,61z M191,52.2c1,0,1.9-0.2,2.7-0.6c0.8-0.4,1.5-0.9,2.1-1.7
			V35.7c-0.5-0.9-1.2-1.6-2-2.1c-0.8-0.5-1.7-0.7-2.7-0.7c-1.3,0-2.4,0.4-3.2,1.2c-0.8,0.8-1.4,1.9-1.8,3.4
			c-0.4,1.4-0.5,3.1-0.5,5.1v0.7c0,2.8,0.4,5,1.2,6.5C187.6,51.4,189,52.2,191,52.2z"/>
		<path class="st0" d="M231.2,61c-3.7,0-6.8-0.8-9.4-2.3c-2.6-1.5-4.6-3.6-5.9-6.4c-1.4-2.7-2.1-5.9-2.1-9.5v-0.7
			c0-3.5,0.7-6.7,2.1-9.4c1.4-2.7,3.3-4.8,5.9-6.4c2.6-1.5,5.7-2.3,9.3-2.3c3.7,0,6.8,0.8,9.3,2.3s4.5,3.7,5.9,6.4
			c1.4,2.7,2.1,5.9,2.1,9.4v0.7c0,3.6-0.7,6.7-2.1,9.4c-1.4,2.7-3.3,4.9-5.9,6.4C237.9,60.3,234.8,61,231.2,61z M231.2,52.3
			c1.4,0,2.5-0.4,3.4-1.1c0.8-0.8,1.5-1.8,1.8-3.2s0.6-3.1,0.6-5v-0.7c0-1.9-0.2-3.5-0.6-4.9c-0.4-1.4-1-2.5-1.9-3.2
			c-0.9-0.8-2-1.2-3.4-1.2c-1.4,0-2.5,0.4-3.4,1.2c-0.9,0.8-1.5,1.9-1.8,3.2c-0.4,1.4-0.6,3-0.6,4.9v0.7c0,1.9,0.2,3.6,0.6,5
			c0.4,1.4,1,2.5,1.8,3.2C228.6,51.9,229.7,52.3,231.2,52.3z"/>
		<polygon class="st0" points="288.3,52.4 278.8,39.7 287,32.9 291.6,31.6 291.6,24.8 271.1,24.8 271.1,31.5 274.7,32.1 274.7,32.1 
			266.6,39.1 266.6,9.1 250.1,9.1 250.1,15.9 255.1,16.9 255.1,52.6 250.9,53.6 250.9,60.3 270,60.3 270,53.6 266.6,52.6 
			266.6,49.9 270.8,46.4 275.5,53.2 275.6,53.3 273.4,54.1 273.4,60.3 292.2,60.3 292.2,53.6 		"/>
		<path class="st0" d="M310.5,61c-3.7,0-6.6-1.2-8.7-3.5c-2.1-2.3-3.2-5.9-3.2-10.8V32.6l-3.8-1.1v-6.8h3.8h11.5v22
			c0,1.8,0.4,3.1,1.1,4c0.7,0.9,1.8,1.4,3.3,1.4c0.9,0,1.7-0.2,2.5-0.5c0.8-0.3,1.6-0.8,2.2-1.4V32.6l-3.9-1.1v-6.8h3.9h11.5v27.7
			l4.4,1.1v6.7h-14.4l-0.8-4c-1.1,1.5-2.5,2.7-4.2,3.5C314.3,60.6,312.5,61,310.5,61z"/>
	</g>
	<g id="mark">
		
			<rect id="quad_8_" x="49.8" y="22.1" transform="matrix(0.7071 -0.7071 0.7071 0.7071 -3.3991 47.3531)" class="st1" width="11.3" height="11.3"/>
		
			<rect id="quad_3_" x="30.8" y="41.1" transform="matrix(0.7071 -0.7071 0.7071 0.7071 -22.3989 39.483)" class="st1" width="11.3" height="11.3"/>
		
			<rect id="quad_2_" x="30.8" y="22.1" transform="matrix(0.7071 -0.7071 0.7071 0.7071 -8.964 33.9181)" class="st1" width="11.3" height="11.3"/>
		
			<rect id="quad_1_" x="49.8" y="41.1" transform="matrix(0.7071 -0.7071 0.7071 0.7071 -16.8341 52.918)" class="st1" width="11.3" height="11.3"/>
		<path id="grid_2_" class="st0" d="M46,5.3l-32,32l32,32l32-32L46,5.3z M63.5,27.8l-8,8l-8-8l8-8L63.5,27.8z M54,37.3l-8,8l-8-8
			l8-8L54,37.3z M46,10.3l8,8l-8,8l-8-8L46,10.3z M36.5,19.8l8,8l-8,8l-8-8L36.5,19.8z M19,37.3l8-8l8,8l-8,8L19,37.3z M28.5,46.8
			l8-8l8,8l-8,8L28.5,46.8z M46,64.3l-8-8l8-8l8,8L46,64.3z M55.5,54.8l-8-8l8-8l8,8L55.5,54.8z M57,37.3l8-8l8,8l-8,8L57,37.3z"/>
	</g>
</g>
<g id="board">
</g>
</svg>
