<svg width="100%" height="100%" viewBox="0 0 560 72" version="1.1" xmlns="http://www.w3.org/2000/svg" xmlns:xlink="http://www.w3.org/1999/xlink" xml:space="preserve">
    <g id="text">
        <path d="M110.1,61C106.2,61 102.7,60.6 99.7,59.9C96.7,59.2 93.7,57.8 90.7,55.7L90.7,43.3L99.6,43.3L100.6,49.7C101.3,50.5 102.5,51.1 104.3,51.7C106.1,52.2 108,52.5 110.1,52.5C111.6,52.5 112.8,52.3 113.8,52C114.8,51.6 115.5,51.1 116,50.4C116.5,49.7 116.8,48.9 116.8,47.9C116.8,47 116.6,46.1 116.1,45.4C115.6,44.7 114.9,44 113.8,43.3C112.7,42.6 111.3,41.9 109.5,41.2C105.4,39.9 102,38.6 99.4,37.2C96.8,35.8 94.8,34.2 93.5,32.4C92.2,30.6 91.6,28.2 91.6,25.5C91.6,22.9 92.4,20.5 93.9,18.6C95.4,16.6 97.5,15.1 100.1,13.9C102.7,12.7 105.8,12.2 109.2,12.1C113.1,12 116.5,12.4 119.5,13.3C122.5,14.2 125.1,15.5 127.4,17.2L127.4,28.7L118.9,28.7L117.6,22.3C116.9,21.9 115.8,21.6 114.4,21.3C113,21 111.6,20.8 110,20.8C108.7,20.8 107.5,21 106.4,21.3C105.3,21.6 104.5,22.2 103.9,22.9C103.3,23.6 103,24.5 103,25.5C103,26.4 103.3,27.1 103.8,27.8C104.3,28.5 105.2,29.1 106.5,29.8C107.8,30.5 109.5,31.2 111.8,32.1C117.2,33.7 121.3,35.7 124.2,38.1C127,40.5 128.4,43.8 128.4,47.9C128.4,50.7 127.6,53.1 126.1,55.1C124.6,57.1 122.4,58.6 119.7,59.6C117,60.5 113.8,61 110.1,61Z" style="fill:rgb(102,102,102);fill-rule:nonzero;"/>
        <path d="M146.2,61C142.5,61 139.6,59.8 137.5,57.5C135.4,55.2 134.3,51.6 134.3,46.7L134.3,32.6L130.5,31.5L130.5,24.7L145.8,24.7L145.8,46.7C145.8,48.5 146.2,49.8 146.9,50.7C147.6,51.6 148.7,52.1 150.2,52.1C151.1,52.1 151.9,51.9 152.7,51.6C153.5,51.3 154.3,50.8 154.9,50.2L154.9,32.6L151,31.5L151,24.7L166.4,24.7L166.4,52.4L170.8,53.5L170.8,60.2L156.4,60.2L155.6,56.2C154.5,57.7 153.1,58.9 151.4,59.7C150.1,60.6 148.2,61 146.2,61Z" style="fill:rgb(102,102,102);fill-rule:nonzero;"/>
        <path d="M187.4,61C184.6,61 182.2,60.3 180.2,58.8C178.2,57.3 176.7,55.3 175.6,52.6C174.5,49.9 174,46.8 174,43.3L174,42.6C174,38.9 174.5,35.7 175.6,32.9C176.7,30.1 178.2,28 180.2,26.4C182.2,24.9 184.5,24.1 187.2,24.1C189.1,24.1 190.7,24.5 192.1,25.3C193.5,26.1 194.7,27.2 195.7,28.6L195.7,16.9L190.7,15.8L190.7,9.1L207.2,9.1L207.2,52.5L211.3,53.6L211.3,60.3L197.2,60.3L196.3,55.9C195.2,57.6 194,58.8 192.5,59.7C191,60.6 189.5,61 187.4,61ZM191,52.2C192,52.2 192.9,52 193.7,51.6C194.5,51.2 195.2,50.7 195.8,49.9L195.8,35.7C195.3,34.8 194.6,34.1 193.8,33.6C193,33.1 192.1,32.9 191.1,32.9C189.8,32.9 188.7,33.3 187.9,34.1C187.1,34.9 186.5,36 186.1,37.5C185.7,38.9 185.6,40.6 185.6,42.6L185.6,43.3C185.6,46.1 186,48.3 186.8,49.8C187.6,51.4 189,52.2 191,52.2Z" style="fill:rgb(102,102,102);fill-rule:nonzero;"/>
        <path d="M231.2,61C227.5,61 224.4,60.2 221.8,58.7C219.2,57.2 217.2,55.1 215.9,52.3C214.5,49.6 213.8,46.4 213.8,42.8L213.8,42.1C213.8,38.6 214.5,35.4 215.9,32.7C217.3,30 219.2,27.9 221.8,26.3C224.4,24.8 227.5,24 231.1,24C234.8,24 237.9,24.8 240.4,26.3C242.9,27.8 244.9,30 246.3,32.7C247.7,35.4 248.4,38.6 248.4,42.1L248.4,42.8C248.4,46.4 247.7,49.5 246.3,52.2C244.9,54.9 243,57.1 240.4,58.6C237.9,60.3 234.8,61 231.2,61ZM231.2,52.3C232.6,52.3 233.7,51.9 234.6,51.2C235.4,50.4 236.1,49.4 236.4,48C236.7,46.6 237,44.9 237,43L237,42.3C237,40.4 236.8,38.8 236.4,37.4C236,36 235.4,34.9 234.5,34.2C233.6,33.4 232.5,33 231.1,33C229.7,33 228.6,33.4 227.7,34.2C226.8,35 226.2,36.1 225.9,37.4C225.5,38.8 225.3,40.4 225.3,42.3L225.3,43C225.3,44.9 225.5,46.6 225.9,48C226.3,49.4 226.9,50.5 227.7,51.2C228.6,51.9 229.7,52.3 231.2,52.3Z" style="fill:rgb(102,102,102);fill-rule:nonzero;"/>
        <path d="M288.3,52.4L278.8,39.7L287,32.9L291.6,31.6L291.6,24.8L271.1,24.8L271.1,31.5L274.7,32.1L266.6,39.1L266.6,9.1L250.1,9.1L250.1,15.9L255.1,16.9L255.1,52.6L250.9,53.6L250.9,60.3L270,60.3L270,53.6L266.6,52.6L266.6,49.9L270.8,46.4L275.5,53.2L275.6,53.3L273.4,54.1L273.4,60.3L292.2,60.3L292.2,53.6L288.3,52.4Z" style="fill:rgb(102,102,102);fill-rule:nonzero;"/>
        <path d="M310.5,61C306.8,61 303.9,59.8 301.8,57.5C299.7,55.2 298.6,51.6 298.6,46.7L298.6,32.6L294.8,31.5L294.8,24.7L310.1,24.7L310.1,46.7C310.1,48.5 310.5,49.8 311.2,50.7C311.9,51.6 313,52.1 314.5,52.1C315.4,52.1 316.2,51.9 317,51.6C317.8,51.3 318.6,50.8 319.2,50.2L319.2,32.6L315.3,31.5L315.3,24.7L330.7,24.7L330.7,52.4L335.1,53.5L335.1,60.2L320.7,60.2L319.9,56.2C318.8,57.7 317.4,58.9 315.7,59.7C314.3,60.6 312.5,61 310.5,61Z" style="fill:rgb(102,102,102);fill-rule:nonzero;"/>
        <g transform="matrix(1,0,0,1,-73.9188,29.964)">
            <path d="M446.827,14.299C446.561,19.479 445.106,23.447 442.461,26.203C439.815,28.958 436.08,30.336 431.255,30.336C426.407,30.336 422.555,28.494 419.7,24.808C416.844,21.123 415.417,16.125 415.417,9.817L415.417,1.051C415.417,-5.235 416.883,-10.205 419.816,-13.857C422.749,-17.509 426.75,-19.335 431.819,-19.335C436.49,-19.335 440.103,-17.941 442.66,-15.152C445.216,-12.363 446.605,-8.367 446.827,-3.166L440.684,-3.166C440.419,-7.106 439.588,-9.917 438.194,-11.599C436.799,-13.281 434.674,-14.123 431.819,-14.123C428.521,-14.123 425.986,-12.833 424.215,-10.254C422.445,-7.676 421.559,-3.896 421.559,1.084L421.559,9.95C421.559,14.842 422.384,18.594 424.033,21.206C425.682,23.818 428.089,25.123 431.255,25.123C434.42,25.123 436.7,24.338 438.094,22.766C439.489,21.194 440.352,18.372 440.684,14.299L446.827,14.299Z" style="fill:rgb(74,74,74);fill-rule:nonzero;"/>
        </g>
        <g transform="matrix(1,0,0,1,-73.9188,29.964)">
            <path d="M459.428,-2.568C461.664,-5.468 464.519,-6.918 467.994,-6.918C474.347,-6.918 477.568,-2.679 477.657,5.799L477.657,29.672L471.813,29.672L471.813,6.065C471.813,3.254 471.342,1.256 470.402,0.072C469.461,-1.113 468.05,-1.705 466.168,-1.705C464.707,-1.705 463.396,-1.218 462.234,-0.244C461.072,0.73 460.136,2.003 459.428,3.575L459.428,29.672L453.551,29.672L453.551,-21.328L459.428,-21.328L459.428,-2.568Z" style="fill:rgb(74,74,74);fill-rule:nonzero;"/>
        </g>
        <g transform="matrix(1,0,0,1,-73.9188,29.964)">
            <path d="M498.559,30.336C494.087,30.336 490.656,29.003 488.266,26.335C485.875,23.668 484.658,19.756 484.613,14.598L484.613,10.248C484.613,4.892 485.781,0.692 488.116,-2.352C490.451,-5.396 493.711,-6.918 497.895,-6.918C502.1,-6.918 505.243,-5.578 507.324,-2.9C509.405,-0.222 510.467,3.951 510.512,9.618L510.512,13.469L490.457,13.469L490.457,14.299C490.457,18.151 491.182,20.951 492.632,22.7C494.082,24.448 496.168,25.323 498.891,25.323C500.617,25.323 502.139,24.996 503.456,24.343C504.773,23.69 506.007,22.655 507.158,21.239L510.213,24.957C507.667,28.543 503.783,30.336 498.559,30.336ZM497.895,-1.871C495.46,-1.871 493.656,-1.035 492.482,0.636C491.309,2.307 490.645,4.903 490.49,8.422L504.635,8.422L504.635,7.625C504.48,4.217 503.866,1.782 502.792,0.321C501.718,-1.14 500.086,-1.871 497.895,-1.871Z" style="fill:rgb(74,74,74);fill-rule:nonzero;"/>
        </g>
        <g transform="matrix(1,0,0,1,-73.9188,29.964)">
            <path d="M530.035,25.323C531.983,25.323 533.544,24.72 534.717,23.513C535.89,22.307 536.532,20.586 536.643,18.35L542.187,18.35C542.055,21.803 540.832,24.664 538.519,26.933C536.205,29.202 533.378,30.336 530.035,30.336C525.586,30.336 522.194,28.936 519.858,26.136C517.523,23.336 516.355,19.169 516.355,13.635L516.355,9.684C516.355,4.261 517.518,0.138 519.842,-2.684C522.166,-5.506 525.553,-6.918 530.002,-6.918C533.676,-6.918 536.593,-5.755 538.751,-3.431C540.909,-1.107 542.055,2.069 542.187,6.098L536.643,6.098C536.51,3.442 535.873,1.45 534.733,0.122C533.593,-1.207 532.016,-1.871 530.002,-1.871C527.39,-1.871 525.453,-1.013 524.191,0.703C522.93,2.418 522.277,5.235 522.232,9.153L522.232,13.735C522.232,17.963 522.858,20.951 524.108,22.7C525.359,24.448 527.335,25.323 530.035,25.323Z" style="fill:rgb(74,74,74);fill-rule:nonzero;"/>
        </g>
        <g transform="matrix(1,0,0,1,-73.9188,29.964)">
            <path d="M557.312,13.237L554.191,16.823L554.191,29.672L548.314,29.672L548.314,-21.328L554.191,-21.328L554.191,9.186L565.381,-6.253L572.42,-6.253L560.998,8.754L573.914,29.672L567.074,29.672L557.312,13.237Z" style="fill:rgb(74,74,74);fill-rule:nonzero;"/>
        </g>
        <g transform="matrix(1,0,0,1,-73.9188,29.964)">
            <path d="M589.057,30.336C584.586,30.336 581.155,29.003 578.764,26.335C576.373,23.668 575.156,19.756 575.112,14.598L575.112,10.248C575.112,4.892 576.279,0.692 578.615,-2.352C580.95,-5.396 584.209,-6.918 588.393,-6.918C592.599,-6.918 595.742,-5.578 597.823,-2.9C599.903,-0.222 600.966,3.951 601.01,9.618L601.01,13.469L580.955,13.469L580.955,14.299C580.955,18.151 581.68,20.951 583.13,22.7C584.58,24.448 586.666,25.323 589.389,25.323C591.116,25.323 592.637,24.996 593.954,24.343C595.272,23.69 596.506,22.655 597.657,21.239L600.711,24.957C598.166,28.543 594.281,30.336 589.057,30.336ZM588.393,-1.871C585.958,-1.871 584.154,-1.035 582.981,0.636C581.808,2.307 581.144,4.903 580.989,8.422L595.133,8.422L595.133,7.625C594.978,4.217 594.364,1.782 593.29,0.321C592.217,-1.14 590.584,-1.871 588.393,-1.871Z" style="fill:rgb(74,74,74);fill-rule:nonzero;"/>
        </g>
        <g transform="matrix(1,0,0,1,-73.9188,29.964)">
            <path d="M622.891,-0.742C622.072,-0.897 621.187,-0.974 620.235,-0.974C617.224,-0.974 615.121,0.675 613.926,3.973L613.926,29.672L608.049,29.672L608.049,-6.253L613.76,-6.253L613.86,-2.601C615.431,-5.479 617.656,-6.918 620.534,-6.918C621.463,-6.918 622.238,-6.763 622.858,-6.453L622.891,-0.742Z" style="fill:rgb(74,74,74);fill-rule:nonzero;"/>
        </g>
    </g>
    <path d="M46,5.3L14,37.3L46,69.3L78,37.3L46,5.3ZM62,27.3L56,33.3L50,27.3L56,21.3L62,27.3ZM52,37.3L46,43.3L40,37.3L46,31.3L52,37.3ZM46,11.3L52,17.3L46,23.3L40,17.3L46,11.3ZM36,21.3L42,27.3L36,33.3L30,27.3L36,21.3ZM20,37.3L26,31.3L32,37.3L26,43.3L20,37.3ZM30,47.3L36,41.3L42,47.3L36,53.3L30,47.3ZM46,63.3L40,57.3L46,51.3L52,57.3L46,63.3ZM56,53.3L50,47.3L56,41.3L62,47.3L56,53.3ZM60,37.3L66,31.3L72,37.3L66,43.3L60,37.3Z" style="fill:rgb(102,102,102);fill-rule:nonzero;"/>
</svg>
