<?xml version="1.0" encoding="utf-8"?>
<!-- Generator: Adobe Illustrator 25.3.1, SVG Export Plug-In . SVG Version: 6.00 Build 0)  -->
<svg version="1.1" id="Layer_1" xmlns="http://www.w3.org/2000/svg" xmlns:xlink="http://www.w3.org/1999/xlink" x="0px" y="0px"
	 viewBox="0 0 360 72" style="enable-background:new 0 0 360 72;" xml:space="preserve">
<style type="text/css">
	.st0{fill:#666666;}
</style>
<path class="st0" d="M46,5.3l-32,32l32,32l32-32L46,5.3z M62,27.3l-6,6l-6-6l6-6L62,27.3z M52,37.3l-6,6l-6-6l6-6L52,37.3z M46,11.3
	l6,6l-6,6l-6-6L46,11.3z M36,21.3l6,6l-6,6l-6-6L36,21.3z M20,37.3l6-6l6,6l-6,6L20,37.3z M30,47.3l6-6l6,6l-6,6L30,47.3z M46,63.3
	l-6-6l6-6l6,6L46,63.3z M56,53.3l-6-6l6-6l6,6L56,53.3z M60,37.3l6-6l6,6l-6,6L60,37.3z"/>
<g id="text">
	<path class="st0" d="M110.1,61c-3.9,0-7.4-0.4-10.4-1.1s-6-2.1-9-4.2V43.3h8.9l1,6.4c0.7,0.8,1.9,1.4,3.7,2
		c1.8,0.5,3.7,0.8,5.8,0.8c1.5,0,2.7-0.2,3.7-0.5c1-0.4,1.7-0.9,2.2-1.6c0.5-0.7,0.8-1.5,0.8-2.5c0-0.9-0.2-1.8-0.7-2.5
		s-1.2-1.4-2.3-2.1c-1.1-0.7-2.5-1.4-4.3-2.1c-4.1-1.3-7.5-2.6-10.1-4s-4.6-3-5.9-4.8s-1.9-4.2-1.9-6.9c0-2.6,0.8-5,2.3-6.9
		c1.5-2,3.6-3.5,6.2-4.7s5.7-1.7,9.1-1.8c3.9-0.1,7.3,0.3,10.3,1.2s5.6,2.2,7.9,3.9v11.5h-8.5l-1.3-6.4c-0.7-0.4-1.8-0.7-3.2-1
		c-1.4-0.3-2.8-0.5-4.4-0.5c-1.3,0-2.5,0.2-3.6,0.5s-1.9,0.9-2.5,1.6s-0.9,1.6-0.9,2.6c0,0.9,0.3,1.6,0.8,2.3c0.5,0.7,1.4,1.3,2.7,2
		c1.3,0.7,3,1.4,5.3,2.3c5.4,1.6,9.5,3.6,12.4,6c2.8,2.4,4.2,5.7,4.2,9.8c0,2.8-0.8,5.2-2.3,7.2s-3.7,3.5-6.4,4.5
		C117,60.5,113.8,61,110.1,61z"/>
	<path class="st0" d="M146.2,61c-3.7,0-6.6-1.2-8.7-3.5c-2.1-2.3-3.2-5.9-3.2-10.8V32.6l-3.8-1.1v-6.8h3.8h11.5v22
		c0,1.8,0.4,3.1,1.1,4c0.7,0.9,1.8,1.4,3.3,1.4c0.9,0,1.7-0.2,2.5-0.5s1.6-0.8,2.2-1.4V32.6l-3.9-1.1v-6.8h3.9h11.5v27.7l4.4,1.1
		v6.7h-14.4l-0.8-4c-1.1,1.5-2.5,2.7-4.2,3.5C150.1,60.6,148.2,61,146.2,61z"/>
	<path class="st0" d="M187.4,61c-2.8,0-5.2-0.7-7.2-2.2s-3.5-3.5-4.6-6.2s-1.6-5.8-1.6-9.3v-0.7c0-3.7,0.5-6.9,1.6-9.7
		s2.6-4.9,4.6-6.5c2-1.5,4.3-2.3,7-2.3c1.9,0,3.5,0.4,4.9,1.2c1.4,0.8,2.6,1.9,3.6,3.3V16.9l-5-1.1V9.1h5h11.5v43.4l4.1,1.1v6.7
		h-14.1l-0.9-4.4c-1.1,1.7-2.3,2.9-3.8,3.8S189.5,61,187.4,61z M191,52.2c1,0,1.9-0.2,2.7-0.6c0.8-0.4,1.5-0.9,2.1-1.7V35.7
		c-0.5-0.9-1.2-1.6-2-2.1s-1.7-0.7-2.7-0.7c-1.3,0-2.4,0.4-3.2,1.2s-1.4,1.9-1.8,3.4c-0.4,1.4-0.5,3.1-0.5,5.1v0.7
		c0,2.8,0.4,5,1.2,6.5C187.6,51.4,189,52.2,191,52.2z"/>
	<path class="st0" d="M231.2,61c-3.7,0-6.8-0.8-9.4-2.3c-2.6-1.5-4.6-3.6-5.9-6.4c-1.4-2.7-2.1-5.9-2.1-9.5v-0.7
		c0-3.5,0.7-6.7,2.1-9.4c1.4-2.7,3.3-4.8,5.9-6.4c2.6-1.5,5.7-2.3,9.3-2.3c3.7,0,6.8,0.8,9.3,2.3s4.5,3.7,5.9,6.4s2.1,5.9,2.1,9.4
		v0.7c0,3.6-0.7,6.7-2.1,9.4c-1.4,2.7-3.3,4.9-5.9,6.4C237.9,60.3,234.8,61,231.2,61z M231.2,52.3c1.4,0,2.5-0.4,3.4-1.1
		c0.8-0.8,1.5-1.8,1.8-3.2s0.6-3.1,0.6-5v-0.7c0-1.9-0.2-3.5-0.6-4.9c-0.4-1.4-1-2.5-1.9-3.2c-0.9-0.8-2-1.2-3.4-1.2
		s-2.5,0.4-3.4,1.2s-1.5,1.9-1.8,3.2c-0.4,1.4-0.6,3-0.6,4.9V43c0,1.9,0.2,3.6,0.6,5c0.4,1.4,1,2.5,1.8,3.2
		C228.6,51.9,229.7,52.3,231.2,52.3z"/>
	<polygon class="st0" points="288.3,52.4 278.8,39.7 287,32.9 291.6,31.6 291.6,24.8 271.1,24.8 271.1,31.5 274.7,32.1 274.7,32.1 
		266.6,39.1 266.6,9.1 250.1,9.1 250.1,15.9 255.1,16.9 255.1,52.6 250.9,53.6 250.9,60.3 270,60.3 270,53.6 266.6,52.6 266.6,49.9 
		270.8,46.4 275.5,53.2 275.6,53.3 273.4,54.1 273.4,60.3 292.2,60.3 292.2,53.6 	"/>
	<path class="st0" d="M310.5,61c-3.7,0-6.6-1.2-8.7-3.5s-3.2-5.9-3.2-10.8V32.6l-3.8-1.1v-6.8h3.8h11.5v22c0,1.8,0.4,3.1,1.1,4
		s1.8,1.4,3.3,1.4c0.9,0,1.7-0.2,2.5-0.5s1.6-0.8,2.2-1.4V32.6l-3.9-1.1v-6.8h3.9h11.5v27.7l4.4,1.1v6.7h-14.4l-0.8-4
		c-1.1,1.5-2.5,2.7-4.2,3.5C314.3,60.6,312.5,61,310.5,61z"/>
</g>
<g id="board">
</g>
</svg>
